# AST/ASF file generated using VICON BodyLanguage
# -----------------------------------------------
:version 1.10
:name VICON
:units
  mass 1.0
  length 0.45
  angle deg
:documentation
   .ast/.asf automatically generated from VICON data using
   VICON BodyBuilder and BodyLanguage model FoxedUp or BRILLIANT.MOD
:root
   order TX TY TZ RX RY RZ
   axis XYZ
   position 0 0 0  
   orientation 0 0 0 
:bonedata
  begin
     id 1 
     name lhipjoint
     direction 0.610259 -0.730986 0.305356 
     length 2.50941 
     axis 0 0 0  XYZ
  end
  begin
     id 2 
     name lfemur
     direction 0.34202 -0.939693 0  
     length 7.48822  
     axis 0 0 20  XYZ
    dof rx ry rz
    limits (-160.0 20.0)
           (-70.0 70.0)
           (-60.0 70.0)
  end
  begin
     id 3 
     name ltibia
     direction 0.34202 -0.939693 0   
     length 7.60141   
     axis 0 0 20   XYZ
    dof rx
    limits (-10.0 170.0)
  end
  begin
     id 4 
     name lfoot
     direction 0.0673488 -0.185039 0.980421   
     length 2.04049   
     axis -90 7.62852e-016 20   XYZ
    dof rx rz
    limits (-45.0 90.0)
           (-70.0 20.0)
  end
  begin
     id 5 
     name ltoes
     direction 1.5356e-011 -4.21729e-011 1   
     length 1.02897   
     axis -90 7.62852e-016 20   XYZ
    dof rx
    limits (-90.0 20.0)
  end
  begin
     id 6 
     name rhipjoint
     direction -0.57612 -0.754205 0.315056   
     length 2.43216  
     axis 0 0 0  XYZ 
  end
  begin
     id 7 
     name rfemur
     direction -0.34202 -0.939693 0   
     length 7.42799   
     axis 0 0 -20   XYZ
    dof rx ry rz
    limits (-160.0 20.0)
           (-70.0 70.0)
           (-70.0 60.0)
  end
  begin
     id 8 
     name rtibia
     direction -0.34202 -0.939693 0   
     length 7.69484   
     axis 0 0 -20   XYZ
    dof rx
    limits (-10.0 170.0)
 end
 begin
     id 9 
     name rfoot
     direction -0.111837 -0.30727 0.945028   
     length 2.15769  
     axis -90 -7.62852e-016 -20   XYZ
    dof rx rz
    limits (-45.0 90.0)
           (-20.0 70.0)
  end
  begin
     id 10 
     name rtoes
     direction -1.53539e-011 -4.21878e-011 1   
     length 1.07391   
     axis -90 -7.62852e-016 -20   XYZ
    dof rx
    limits (-90.0 20.0)
  end
  begin
     id 11 
     name lowerback
     direction 0.00552624 0.990109 -0.140195   
     length 2.12403   
     axis 0 0 0   XYZ
    dof rx ry rz
    limits (-20.0 45.0)
           (-30.0 30.0)
           (-30.0 30.0)
  end
  begin
     id 12 
     name upperback
     direction 0.00361898 0.999976 -0.00584723   
     length 2.13232   
     axis 0 0 0   XYZ
    dof rx ry rz
    limits (-20.0 45.0)
           (-30.0 30.0)
           (-30.0 30.0)
  end
  begin
     id 13 
     name thorax
     direction -0.000331275 0.998253 0.0590847   
     length 2.17688   
     axis 0 0 0   XYZ
    dof rx ry rz
    limits (-20.0 45.0)
           (-30.0 30.0)
           (-30.0 30.0)
  end
  begin
     id 14 
     name lowerneck
     direction -0.0561561 0.979832 0.19177   
     length 1.64159   
     axis 0 0 0   XYZ
    dof rx ry rz
    limits (-20.0 45.0)
           (-30.0 30.0)
           (-30.0 30.0)
  end
  begin
     id 15 
     name upperneck
     direction 0.0827153 0.979385 -0.184293   
     length 1.68939   
     axis 0 0 0   XYZ
    dof rx ry rz
    limits (-20.0 45.0)
           (-30.0 30.0)
           (-30.0 30.0)
  end
  begin
     id 16
     name head
     direction 0.0278583 0.995936 -0.0856488  
     length 1.70207  
     axis 0 0 0   XYZ
    dof rx ry rz
    limits (-20.0 45.0)
           (-30.0 30.0)
           (-30.0 30.0)
  end
  begin
     id 17 
     name lclavicle
     direction 0.950993 0.301131 -0.0702275  
     length 3.41652  
     axis 0 0 0   XYZ
    dof ry rz
    limits (-20.0 10.0)
           (0.0 20.0)
  end
  begin
     id 18 
     name lhumerus
     direction 1 -4.48981e-011 -3.9662e-029   
     length 5.32955   
     axis 180 -30 -90   XYZ
    dof rx ry rz
    limits (-60.0 90.0)
           (-90.0 90.0)
           (-90.0 90.0)
  end
  begin
     id 19
     name lradius
     direction 1 -4.48925e-011 -9.0549e-027   
     length 3.69232   
     axis 180 -30 -90   XYZ
    dof rx
    limits (-10.0 170.0)
  end
  begin
     id 20
     name lwrist
     direction 1 -4.49007e-011 -1.49005e-026   
     length 1.84616   
     axis 9.0955e-015 90 90   XYZ
    dof ry
    limits (-180.0 0.0)
 end
  begin
     id 21 
     name lhand
     direction 1 -4.49016e-011 -2.98023e-026   
     length 0.536598   
     axis 1.90115e-014 90 90   XYZ
    dof rx rz
    limits (-90.0 90.0)
           (-45.0 45.0)
  end
  begin
     id 22 
     name lfingers
     direction 1 -4.48924e-011 -5.9578e-026   
     length 0.432619   
     axis 3.80223e-014 90 90   XYZ
    dof rx
    limits (0.0 90.0)
  end
  begin
     id 23
     name lthumb
     direction 0.707107 -6.34947e-011 0.707107   
     length 0.621157   
     axis -90 45 -3.84942e-014   XYZ
    dof rx rz
    limits (-45.0 45.0)
           (-45.0 45.0)
  end
  begin
     id 24 
     name rclavicle
     direction -0.955495 0.276497 -0.102848   
     length 3.36357  
     axis 0 0 0   XYZ 
    dof ry rz
    limits (-10.0 20.0)
           (-20.0 0.0)
  end
  begin
     id 25 
     name rhumerus
     direction -1 -4.48961e-011 3.30983e-027  
     length 5.23431   
     axis 180 30 90   XYZ
    dof rx ry rz
    limits (-90.0 60.0)
           (-90.0 90.0)
           (-90.0 90.0)
  end
  begin
     id 26 
     name rradius
     direction -1 -4.48965e-011 -6.63263e-027   
     length 3.55301   
     axis 180 30 90   XYZ
    dof rx
    limits (-10.0 170.0)
  end
  begin
     id 27 
     name rwrist
     direction -1 -4.48942e-011 -1.48958e-026   
     length 1.77651   
     axis 9.0955e-015 -90 -90   XYZ
    dof ry
    limits (-180.0 0.0)
  end
  begin
     id 28
     name rhand
     direction -1 -4.48977e-011 -2.97966e-026   
     length 0.772522   
     axis 1.90115e-014 -90 -90   XYZ
    dof rx rz
    limits (-90.0 90.0)
           (-45.0 45.0)
  end
  begin
     id 29
     name rfingers
     direction -1 -4.49135e-011 -5.96389e-026   
     length 0.622827   
     axis 3.80223e-014 -90 -90   XYZ
    dof rx
    limits (0.0 90.0)
  end
  begin
     id 30
     name rthumb
     direction -0.707107 -6.34969e-011 0.707107   
     length 0.894259   
     axis -90 -45 3.84942e-014   XYZ
    dof rx rz
    limits (-45.0 45.0)
           (-45.0 45.0)
  end
:hierarchy
  begin
    root lhipjoint rhipjoint lowerback
    lhipjoint lfemur
    lfemur ltibia
    ltibia lfoot
    lfoot ltoes
    rhipjoint rfemur
    rfemur rtibia
    rtibia rfoot
    rfoot rtoes
    lowerback upperback
    upperback thorax
    thorax lowerneck lclavicle rclavicle
    lowerneck upperneck
    upperneck head
    lclavicle lhumerus
    lhumerus lradius
    lradius lwrist
    lwrist lhand lthumb
    lhand lfingers
    rclavicle rhumerus
    rhumerus rradius
    rradius rwrist
    rwrist rhand rthumb
    rhand rfingers
  end

#!OML:ASF F:\VICON\USERDATA\INSTALL\rory3\rory3.ASF
:FULLY-SPECIFIED
:DEGREES
1
root 15.4604 17.9728 -11.5028 0.595775 -49.9123 -0.579979
lowerback 11.5058 1.21862 -0.338606
upperback 1.1507 1.61926 1.27511
thorax -5.29423 0.805893 1.26927
lowerneck -20.9515 -3.89203 -10.413
upperneck 26.1627 -4.25371 7.23454
head 12.5636 -2.03237 3.80511
rclavicle 1.00883e-014 2.78299e-015
rhumerus -34.5233 -14.8427 -80.9982
rradius 30.2289
rwrist 11.054
rhand -12.419 8.71789
rfingers 7.12502
rthumb 13.6532 -20.8143
lclavicle 1.00883e-014 2.78299e-015
lhumerus -35.0759 6.93482 83.3353
lradius 34.7239
lwrist -7.56427
lhand -16.4283 26.1135
lfingers 7.12502
lthumb 9.78695 55.8661
rfemur -3.50607 -0.424414 27.1935
rtibia 25.9759
rfoot -19.4274 -1.51534
rtoes 14.6701
lfemur -22.3743 -0.426291 -19.2727
ltibia 47.9115
lfoot -10.4972 -4.28121
ltoes -6.19601
2
root 15.4342 17.9651 -11.4887 0.309801 -49.9612 -0.306749
lowerback 11.5655 1.298 -0.444167
upperback 1.19238 1.70374 1.15334
thorax -5.2852 0.848157 1.18707
lowerneck -20.5698 -3.89686 -10.5247
upperneck 25.9279 -4.31453 7.43808
head 12.4072 -2.04767 3.88731
rclavicle -8.34896e-014 6.36111e-015
rhumerus -34.5609 -15.5086 -80.738
rradius 29.8684
rwrist 11.2399
rhand -12.4601 8.88491
rfingers 7.12502
rthumb 13.6136 -20.65
lclavicle -8.34896e-014 6.36111e-015
lhumerus -35.2776 7.02894 83.2104
lradius 34.945
lwrist -7.33559
lhand -16.6683 25.5813
lfingers 7.12502
lthumb 9.55543 55.3447
rfemur -3.4154 -0.323855 27.0406
rtibia 26.2274
rfoot -19.7268 -1.66036
rtoes 14.9681
lfemur -22.5287 -0.371416 -19.5543
ltibia 46.9947
lfoot -10.9224 -3.86717
ltoes -9.293
3
root 15.408 17.9502 -11.4727 0.219118 -50.0482 -0.238343
lowerback 11.5274 1.37597 -0.39199
upperback 1.27027 1.80697 1.05799
thorax -5.17993 0.896091 1.04306
lowerneck -20.4274 -3.90986 -10.584
upperneck 25.9283 -4.36829 7.56336
head 12.3891 -2.06442 3.93748
rclavicle 1.1773e-013 -1.07344e-014
rhumerus -34.5225 -16.0379 -80.5958
rradius 29.5732
rwrist 11.3258
rhand -12.596 8.90412
rfingers 7.12502
rthumb 13.4826 -20.6395
lclavicle 1.1773e-013 -1.07344e-014
lhumerus -35.52 7.28352 83.0439
lradius 35.3013
lwrist -7.30762
lhand -16.5058 25.5594
lfingers 7.12502
lthumb 9.71219 55.3155
rfemur -3.21711 -0.167262 27.0377
rtibia 26.1746
rfoot -19.7736 -1.76707
rtoes 15.2523
lfemur -22.6811 -0.102958 -19.761
ltibia 45.9915
lfoot -11.459 -2.87449
ltoes -16.1779
4
root 15.3824 17.9484 -11.4532 0.276523 -50.1437 -0.272057
lowerback 11.6031 1.43061 -0.309705
upperback 1.20622 1.88995 1.03482
thorax -5.28782 0.93549 0.95673
lowerneck -20.3287 -3.92636 -10.6852
upperneck 26.0944 -4.39317 7.60278
head 12.4419 -2.08623 3.97088
rclavicle 9.19379e-015 8.74653e-015
rhumerus -34.7305 -16.022 -80.5197
rradius 29.546
rwrist 10.9862
rhand -12.8475 8.52858
rfingers 7.12502
rthumb 13.2402 -21.0309
lclavicle 9.19379e-015 8.74653e-015
lhumerus -35.9159 7.58954 82.932
lradius 35.5572
lwrist -7.32994
lhand -16.4873 25.6991
lfingers 7.12502
lthumb 9.73002 55.4543
rfemur -2.73405 -0.0895299 27.0655
rtibia 25.3736
rfoot -19.4317 -1.70474
rtoes 15.0347
lfemur -22.9622 0.0095166 -19.8456
ltibia 44.9115
lfoot -11.8504 -2.01452
ltoes -19.4934
5
root 15.3545 17.962 -11.43 0.269816 -50.2274 -0.290207
lowerback 11.6532 1.48265 -0.162271
upperback 1.21001 1.97463 0.980444
thorax -5.30648 0.973248 0.80206
lowerneck -20.2451 -3.93113 -10.8061
upperneck 26.1818 -4.41015 7.7182
head 12.4678 -2.09479 4.03667
rclavicle -7.46933e-014 -5.1684e-015
rhumerus -34.8443 -16.3476 -80.3097
rradius 29.409
rwrist 11.0591
rhand -12.5598 8.47126
rfingers 7.12502
rthumb 13.5175 -21.07
lclavicle -7.46933e-014 -5.1684e-015
lhumerus -36.0968 7.92927 82.7999
lradius 35.5781
lwrist -7.47167
lhand -16.7442 25.7266
lfingers 7.12502
lthumb 9.48213 55.4932
rfemur -2.38589 -0.105132 27.0592
rtibia 25.0001
rfoot -19.374 -1.57846
rtoes 15.283
lfemur -23.1788 -0.262318 -19.8578
ltibia 43.6839
lfoot -11.9625 -1.24361
ltoes -17.4162
6
root 15.3151 18.068 -11.4034 0.283825 -50.3352 -0.353641
lowerback 11.6768 1.56382 -0.00340937
upperback 1.23619 2.09876 0.922405
thorax -5.28622 1.03002 0.631736
lowerneck -20.1683 -3.90774 -10.9029
upperneck 26.2979 -4.41361 7.88944
head 12.5056 -2.08825 4.12371
rclavicle 1.25085e-013 -7.15625e-015
rhumerus -34.9463 -16.9598 -79.9655
rradius 29.1231
rwrist 11.7952
rhand -11.942 8.85354
rfingers 7.12502
rthumb 14.1129 -20.6472
lclavicle 1.25085e-013 -7.15625e-015
lhumerus -36.2907 8.10941 82.682
lradius 35.6412
lwrist -7.6708
lhand -16.714 25.7434
lfingers 7.12502
lthumb 9.51125 55.5088
rfemur -1.81232 -0.0962846 27.0601
rtibia 24.3106
rfoot -19.1893 -1.43918
rtoes 15.3486
lfemur -23.8707 -2.17001 -19.0703
ltibia 42.4026
lfoot -10.9642 -2.87361
ltoes 15.485
7
root 15.2956 17.9798 -11.3848 0.386601 -50.3807 -0.504495
lowerback 11.7018 1.63143 0.190512
upperback 1.27595 2.20893 0.861474
thorax -5.24997 1.07918 0.44119
lowerneck -20.102 -3.90019 -10.8367
upperneck 26.3593 -4.46053 7.96083
head 12.5217 -2.09588 4.13452
rclavicle 8.38374e-014 -9.54166e-015
rhumerus -35.0012 -17.0452 -79.9603
rradius 28.991
rwrist 12.0122
rhand -11.9754 8.86623
rfingers 7.12502
rthumb 14.0808 -20.6367
lclavicle 8.38374e-014 -9.54166e-015
lhumerus -36.4025 8.02958 82.6169
lradius 35.7078
lwrist -7.48401
lhand -16.7868 25.8378
lfingers 7.12502
lthumb 9.44102 55.6064
rfemur -1.48773 -0.112082 27.1923
rtibia 23.8628
rfoot -18.9905 -1.30218
rtoes 15.5486
lfemur -23.6088 -1.06126 -19.5509
ltibia 41.0193
lfoot -12.1416 -0.286633
ltoes -4.17267
